<svg width="27" height="54" viewBox="0 0 27 54" fill="none" xmlns="http://www.w3.org/2000/svg">
<path d="M0.048 46.808H4.208V47.624H2.6V52H1.656V47.624H0.048V46.808ZM7.49381 46.704C7.84048 46.704 8.15781 46.7627 8.44581 46.88C8.73381 46.992 8.98181 47.16 9.18981 47.384C9.62715 47.8533 9.84581 48.5253 9.84581 49.4C9.84581 50.28 9.62715 50.96 9.18981 51.44C8.77381 51.888 8.20581 52.112 7.48581 52.112C6.77115 52.112 6.20581 51.8827 5.78981 51.424C5.35248 50.9493 5.13381 50.2747 5.13381 49.4C5.13381 48.5147 5.35248 47.8373 5.78981 47.368C6.20048 46.9253 6.76848 46.704 7.49381 46.704ZM8.86981 49.416C8.86981 48.8187 8.74448 48.36 8.49381 48.04C8.24848 47.7147 7.91515 47.552 7.49381 47.552C7.07248 47.552 6.73648 47.7147 6.48581 48.04C6.23515 48.36 6.10981 48.8187 6.10981 49.416C6.10981 50.008 6.23515 50.464 6.48581 50.784C6.73648 51.0987 7.07248 51.256 7.49381 51.256C7.91515 51.256 8.24848 51.0987 8.49381 50.784C8.74448 50.464 8.86981 50.008 8.86981 49.416ZM13.1428 46.808C13.9321 46.808 14.5694 47.0427 15.0548 47.512C15.5454 47.9813 15.7908 48.6133 15.7908 49.408C15.7908 50.1973 15.5454 50.8267 15.0548 51.296C14.5694 51.7653 13.9321 52 13.1428 52H11.4548V46.808H13.1428ZM12.4068 51.144H13.1428C13.6334 51.144 14.0308 50.9787 14.3348 50.648C14.6228 50.328 14.7668 49.9147 14.7668 49.408C14.7668 48.8907 14.6228 48.472 14.3348 48.152C14.0361 47.8267 13.6388 47.664 13.1428 47.664H12.4068V51.144ZM18.6471 46.808H19.8311L21.5351 52H20.5351L20.1751 50.88H18.2471L17.8791 52H16.8791L18.6471 46.808ZM18.4871 50.168H19.9431L19.2231 47.936L18.4871 50.168ZM23.2324 46.808L24.3764 48.88L25.5764 46.808H26.6884L24.8404 49.856V52H23.8964V49.856L22.1124 46.808H23.2324Z" fill="#666666"/>
<line x1="13.5" y1="5.5" x2="13.5" y2="35.5" stroke="#B8B9BE" stroke-linecap="round"/>
<circle cx="13.5" cy="3.5" r="3" fill="white" stroke="#B8B9BE"/>
</svg>
